<svg width="54" height="60" viewBox="0 0 54 60" fill="none" xmlns="http://www.w3.org/2000/svg">
<path d="M49.0162 36.114L51.2548 35.8452C52.7211 35.6693 53.8269 34.4291 53.8269 32.9608C53.8269 31.3587 52.5159 30.0553 50.9045 30.0553H49.0124C47.9405 30.0553 47.0043 30.6337 46.4956 31.4912L44.0561 26.1821C43.0441 23.9784 41.022 22.3395 38.6468 21.7982C34.7284 20.9054 19.2725 20.9054 15.354 21.7982C12.9789 22.3395 10.9567 23.9782 9.94483 26.1816L7.50491 31.4908C6.99627 30.6334 6.06003 30.0553 4.98826 30.0553H3.0959C1.48435 30.0553 0.17334 31.3587 0.17334 32.9608C0.17334 34.4291 1.27917 35.6693 2.74546 35.8452L4.98423 36.114L2.72655 38.3585C1.41193 39.6654 0.783041 41.538 1.0441 43.3679L1.93266 49.5961C2.16398 51.2176 2.99498 52.6367 4.18047 53.6447V56.3649C4.18047 58.1757 5.66232 59.6489 7.48378 59.6489H12.5735C14.395 59.6489 15.8768 58.1757 15.8768 56.3649V55.2237H38.1241V56.3649C38.1241 58.1757 39.606 59.6489 41.4275 59.6489H46.5159C48.3374 59.6489 49.8193 58.1757 49.8193 56.3649V53.6452C51.005 52.6373 51.8362 51.2179 52.0676 49.5963L52.9563 43.368C53.2174 41.5383 52.5885 39.6655 51.2739 38.3585L49.0162 36.114ZM45.5476 52.7361H8.45269C6.60565 52.7361 4.99577 51.4828 4.51562 49.7487H49.4845C49.0044 51.4828 47.3945 52.7361 45.5476 52.7361ZM38.8103 44.4365L39.6979 47.261H38.7797L37.8921 44.4365H38.8103ZM35.2705 44.4365L36.1581 47.261H17.8416L18.7292 44.4365H35.2705ZM15.2203 47.2611H14.3023L15.1898 44.4367H16.1079L15.2203 47.2611ZM11.6809 47.2611H4.12681L3.72382 44.4367H12.5685L11.6809 47.2611ZM42.3193 47.2611L41.4318 44.4367H50.2765L49.8735 47.2611H42.3193ZM48.5919 32.9608C48.5919 32.7304 48.7804 32.5429 49.0122 32.5429H50.9042C51.136 32.5429 51.3245 32.7303 51.3245 32.9608C51.3245 33.1719 51.1654 33.3504 50.9546 33.3756L48.5918 33.6594V32.9608H48.5919ZM45.1187 34.4808H21.7784C22.4705 33.2423 22.6785 31.8107 22.3623 30.4208C22.1721 29.5853 22.3154 28.7228 22.7659 27.9924L23.4875 26.8223C30.0319 26.7148 37.6352 26.9134 40.2682 27.4182C40.9376 27.5461 41.5722 27.7575 42.1613 28.0456L45.1187 34.4808ZM17.4406 30.4208C17.2504 29.5852 17.3937 28.7227 17.8441 27.9924L18.4686 26.9799C19.1165 26.9475 19.8008 26.9192 20.514 26.8953C19.8153 28.1371 19.604 29.5745 19.9216 30.9699C20.1118 31.8054 19.9685 32.6678 19.5182 33.398L18.8506 34.4808H16.8567C17.5489 33.2423 17.7568 31.8107 17.4406 30.4208ZM15.9127 24.2228C19.4359 23.4202 34.5646 23.42 38.0876 24.2228C38.609 24.3417 39.1049 24.5389 39.5615 24.8006C34.0545 24.1474 19.9425 24.1474 14.4386 24.8006C14.8953 24.5389 15.3913 24.3417 15.9127 24.2228ZM11.8389 28.0462C12.4283 27.7578 13.0634 27.5461 13.7338 27.4181C14.172 27.3341 14.75 27.2586 15.436 27.1916C14.8633 28.3627 14.7076 29.6843 15.0001 30.9699C15.1903 31.8054 15.0469 32.6678 14.5967 33.398L13.929 34.4808H8.88195L11.8389 28.0462ZM2.67554 32.9608C2.67554 32.7304 2.86403 32.5429 3.0959 32.5429H4.98798C5.21971 32.5429 5.40835 32.7303 5.40835 32.9608V33.6594L3.0453 33.3756C2.83456 33.3504 2.67554 33.1719 2.67554 32.9608ZM7.66352 36.9684H46.3369L49.5045 40.1175C50.0085 40.6184 50.3371 41.2632 50.4587 41.949H3.54157C3.66321 41.2631 3.99183 40.6184 4.49574 40.1175L7.66352 36.9684ZM13.3748 56.3647C13.3748 56.8039 13.0154 57.1612 12.5737 57.1612H7.48392C7.04214 57.1612 6.6828 56.8039 6.6828 56.3647V54.9799C7.24857 55.1388 7.84271 55.2235 8.45283 55.2235H13.3748V56.3647ZM47.3171 56.3647C47.3171 56.8039 46.9577 57.1612 46.5159 57.1612H41.4275C40.9857 57.1612 40.6263 56.8039 40.6263 56.3647V55.2237H45.5475C46.1574 55.2237 46.7514 55.1388 47.3169 54.9802V56.3647H47.3171Z" fill="#C0C0C0"/>
<path d="M10.1836 7.74706H44.1048C44.5253 7.74706 44.9179 7.537 45.1493 7.18792C45.3809 6.83883 45.4204 6.39743 45.2547 6.01324C43.679 2.36027 40.0778 0 36.0798 0H18.2086C14.2108 0 10.6094 2.36027 9.03387 6.0131C8.86817 6.39743 8.90765 6.83883 9.1391 7.18778C9.37069 7.53686 9.76312 7.74706 10.1836 7.74706ZM18.2086 2.48755H36.0798C38.3825 2.48755 40.51 3.53274 41.9072 5.25951H12.3812C13.7784 3.53274 15.9057 2.48755 18.2086 2.48755Z" fill="#C0C0C0"/>
<path d="M13.9211 8.59381C13.468 8.59381 13.0505 8.83731 12.8293 9.23021L10.6554 13.0925C9.84139 14.5389 10.0962 16.3678 11.2751 17.5397C11.9819 18.2423 12.9217 18.6294 13.9212 18.6294C14.9207 18.6294 15.8606 18.2425 16.5673 17.5397C17.7462 16.3677 18.001 14.5389 17.1869 13.0924L15.0129 9.23021C14.7917 8.83731 14.3741 8.59381 13.9211 8.59381ZM14.798 15.7808C14.3143 16.2614 13.5278 16.2613 13.0443 15.7808V15.7806C12.6537 15.3923 12.5693 14.7864 12.839 14.3072L13.9211 12.3846L15.0031 14.3072C15.273 14.7864 15.1886 15.3924 14.798 15.7808Z" fill="#C0C0C0"/>
<path d="M22.7361 8.59381C22.2831 8.59381 21.8655 8.83731 21.6443 9.23021L19.4705 13.0924C18.6563 14.5388 18.9111 16.3677 20.0901 17.5397C20.7968 18.2423 21.7365 18.6294 22.7361 18.6294C23.7356 18.6294 24.6755 18.2425 25.3822 17.5397C26.5611 16.3677 26.816 14.5389 26.0018 13.0924L23.8279 9.23021C23.6067 8.83718 23.1892 8.59381 22.7361 8.59381ZM23.613 15.7808C23.1295 16.2613 22.343 16.2614 21.8594 15.7808V15.7806C21.4688 15.3923 21.3844 14.7864 21.6541 14.307L22.7361 12.3846L23.8182 14.307C24.0881 14.7864 24.0036 15.3924 23.613 15.7808Z" fill="#C0C0C0"/>
<path d="M31.5519 8.59381C31.0989 8.59381 30.6813 8.83731 30.4601 9.23021L28.2864 13.0924C27.4722 14.5388 27.727 16.3677 28.9058 17.5397C29.6127 18.2423 30.5524 18.6294 31.5521 18.6294C32.5515 18.6294 33.4912 18.2425 34.198 17.5397C35.3769 16.3677 35.6317 14.5389 34.8176 13.0924L32.6436 9.23021C32.4225 8.83718 32.0049 8.59381 31.5519 8.59381ZM32.4288 15.7808C31.9455 16.2613 31.1585 16.2614 30.6753 15.7808C30.6753 15.7808 30.6753 15.7806 30.6752 15.7806C30.2846 15.3923 30.2002 14.7864 30.47 14.307L31.5519 12.3846L32.6341 14.3072C32.9039 14.7864 32.8194 15.3924 32.4288 15.7808Z" fill="#C0C0C0"/>
<path d="M41.4593 9.23036C41.238 8.83733 40.8204 8.59396 40.3675 8.59396C39.9146 8.59396 39.4969 8.83747 39.2758 9.23036L37.1016 13.0927C36.2877 14.5391 36.5425 16.3678 37.7213 17.5399C38.4282 18.2425 39.3679 18.6296 40.3674 18.6296C41.3669 18.6296 42.3066 18.2426 43.0133 17.5399C44.1923 16.3678 44.4471 14.5391 43.6331 13.0927L41.4593 9.23036ZM41.2443 15.7808C40.7609 16.2614 39.9741 16.2614 39.4909 15.7808H39.4908C39.1002 15.3924 39.0158 14.7864 39.2853 14.3072L40.3675 12.3846L41.4496 14.3072C41.7194 14.7864 41.6349 15.3924 41.2443 15.7808Z" fill="#C0C0C0"/>
</svg>
