<svg width="60" height="59" viewBox="0 0 60 59" fill="none" xmlns="http://www.w3.org/2000/svg">
<g clip-path="url(#clip0)">
<path d="M54.2691 0H12.8272C10.1039 0.00316833 7.89689 2.18371 7.89368 4.87435V50.6933H0.98671C0.441799 50.6933 0 51.1298 0 51.6681V53.6179C0.00320681 56.3085 2.21023 58.489 4.93355 58.4922H46.3754C49.0987 58.489 51.3057 56.3085 51.3089 53.6179V30.6246L57.4334 24.5736C58.6361 23.3853 58.6361 21.4587 57.4334 20.2705C56.2308 19.0822 54.2808 19.0822 53.0781 20.2705L51.3089 22.0184V7.79896H58.2159C58.7608 7.79896 59.2026 7.36246 59.2026 6.82409V4.87435C59.1994 2.18371 56.9924 0.00316833 54.2691 0ZM4.93355 56.5425C3.2987 56.5425 1.97342 55.2331 1.97342 53.6179V52.643H41.4418V53.6179C41.444 53.9217 41.4751 54.2245 41.5346 54.5225C41.5523 54.62 41.581 54.7029 41.6036 54.7936C41.6526 54.9921 41.7139 55.1874 41.7872 55.3785C41.8257 55.476 41.8671 55.5676 41.9115 55.6612C41.9956 55.8389 42.0906 56.0114 42.1957 56.1779C42.247 56.2598 42.2943 56.3426 42.3526 56.4206C42.3802 56.4606 42.4009 56.5045 42.4305 56.5425H4.93355ZM49.3355 53.6179C49.3355 55.2331 48.0102 56.5425 46.3754 56.5425C44.7405 56.5425 43.4152 55.2331 43.4152 53.6179V51.6681C43.4152 51.1298 42.9734 50.6933 42.4285 50.6933H9.8671V4.87435C9.8671 3.25911 11.1924 1.94974 12.8272 1.94974H50.3222C50.2926 1.98776 50.2719 2.03163 50.2443 2.0716C50.188 2.14959 50.1387 2.23245 50.0874 2.31434C49.9823 2.4808 49.8873 2.65335 49.8032 2.83102C49.7588 2.92851 49.7174 3.0182 49.6789 3.11374C49.6056 3.30481 49.5443 3.50015 49.4954 3.69866C49.4727 3.78932 49.444 3.87706 49.4263 3.96967C49.3675 4.26774 49.3371 4.57068 49.3355 4.87435V23.9682L36.7974 36.3558C36.6708 36.4809 36.5812 36.6376 36.5379 36.8092L35.5512 40.7086C35.4673 41.0407 35.5658 41.3918 35.8107 41.6338C35.8939 41.7129 35.9909 41.7766 36.0968 41.8219C36.1225 41.8336 36.1462 41.8444 36.1728 41.8541C36.2781 41.8938 36.3896 41.9156 36.5024 41.9184H36.5083C36.5888 41.9183 36.669 41.9086 36.7471 41.8892L40.6939 40.9143C40.8676 40.8716 41.0262 40.783 41.1527 40.6579L49.3355 32.5743V53.6179ZM54.4733 21.6489C54.9112 21.2357 55.6004 21.2357 56.0382 21.6489C56.4695 22.0762 56.4695 22.7679 56.0382 23.1951L55.2558 23.9682L53.6908 22.422L54.4733 21.6489ZM52.2956 23.8005L53.8606 25.3466L39.9479 39.0923L37.862 39.608L38.384 37.5471L52.2956 23.8005ZM57.2292 5.84922H51.3089V4.87435C51.3089 3.25911 52.6342 1.94974 54.2691 1.94974C55.9039 1.94974 57.2292 3.25911 57.2292 4.87435V5.84922Z" fill="#A8A8A8"/>
<path d="M40.4552 5.84924H18.7476V7.79898H40.4552V5.84924Z" fill="#A8A8A8"/>
<path d="M21.9968 10.0344L20.1881 11.8213C20.0495 11.7437 19.8935 11.7015 19.7342 11.6985H14.8007C14.2558 11.6985 13.814 12.135 13.814 12.6733V17.5477C13.814 18.0861 14.2558 18.5226 14.8007 18.5226H19.7342C20.2791 18.5226 20.7209 18.0861 20.7209 17.5477V14.0518L23.392 11.4128L21.9968 10.0344ZM18.7475 16.5728H15.7874V13.6482H18.339L17.0632 14.9087L18.4584 16.2872L18.7475 16.0015V16.5728Z" fill="#A8A8A8"/>
<path d="M45.3889 11.6984H24.668V13.6482H45.3889V11.6984Z" fill="#A8A8A8"/>
<path d="M41.442 15.5979H24.668V17.5476H41.442V15.5979Z" fill="#A8A8A8"/>
<path d="M21.9968 19.783L20.1881 21.57C20.0495 21.4923 19.8935 21.4502 19.7342 21.4471H14.8007C14.2558 21.4471 13.814 21.8836 13.814 22.422V27.2963C13.814 27.8347 14.2558 28.2712 14.8007 28.2712H19.7342C20.2791 28.2712 20.7209 27.8347 20.7209 27.2963V23.8005L23.392 21.1615L21.9968 19.783ZM18.7475 26.3215H15.7874V23.3969H18.339L17.0632 24.6574L18.4584 26.0358L18.7475 25.7502V26.3215Z" fill="#A8A8A8"/>
<path d="M45.3889 21.4471H24.668V23.3969H45.3889V21.4471Z" fill="#A8A8A8"/>
<path d="M41.442 25.3466H24.668V27.2964H41.442V25.3466Z" fill="#A8A8A8"/>
<path d="M21.9968 29.5317L20.1881 31.3187C20.0495 31.2411 19.8935 31.1989 19.7342 31.1958H14.8007C14.2558 31.1958 13.814 31.6323 13.814 32.1707V37.0451C13.814 37.5834 14.2558 38.0199 14.8007 38.0199H19.7342C20.2791 38.0199 20.7209 37.5834 20.7209 37.0451V33.5492L23.392 30.9102L21.9968 29.5317ZM18.7475 36.0702H15.7874V33.1456H18.339L17.0632 34.4061L18.4584 35.7846L18.7475 35.4989V36.0702Z" fill="#A8A8A8"/>
<path d="M37.4952 31.1958H24.668V33.1455H37.4952V31.1958Z" fill="#A8A8A8"/>
<path d="M33.5484 35.0953H24.668V37.0451H33.5484V35.0953Z" fill="#A8A8A8"/>
<path d="M21.9968 39.2805L20.1881 41.0675C20.0495 40.9898 19.8935 40.9477 19.7342 40.9446H14.8007C14.2558 40.9446 13.814 41.3811 13.814 41.9195V46.7938C13.814 47.3322 14.2558 47.7687 14.8007 47.7687H19.7342C20.2791 47.7687 20.7209 47.3322 20.7209 46.7938V43.298L23.392 40.659L21.9968 39.2805ZM18.7475 45.819H15.7874V42.8944H18.339L17.0632 44.1549L18.4584 45.5333L18.7475 45.2477V45.819Z" fill="#A8A8A8"/>
<path d="M33.5484 40.9446H24.668V42.8943H33.5484V40.9446Z" fill="#A8A8A8"/>
<path d="M41.442 44.844H24.668V46.7937H41.442V44.844Z" fill="#A8A8A8"/>
</g>
<defs>
<clipPath id="clip0">
<rect width="59.2026" height="58.4922" fill="white"/>
</clipPath>
</defs>
</svg>
