<svg width="16" height="20" viewBox="0 0 16 20" fill="none" xmlns="http://www.w3.org/2000/svg">
<path d="M3.18518 13.3333H5.4074V11.1111H3.18518V13.3333ZM3.92592 11.8519H4.66666V12.5926H3.92592V11.8519Z" fill="#0B4781"/>
<path d="M3.18518 17.037H5.4074V14.8148H3.18518V17.037ZM3.92592 15.5556H4.66666V16.2963H3.92592V15.5556Z" fill="#0B4781"/>
<path d="M12.8148 8.14815H6.88889V8.88889H12.8148V8.14815Z" fill="#0B4781"/>
<path d="M10.5926 0H10.2222H2.44443C1.6296 0 0.962952 0.666647 0.962952 1.48148V18.5185C0.962952 19.3333 1.6296 20 2.44443 20H13.5555C14.3703 20 15.037 19.3333 15.037 18.5185V5.55557V5.18522L10.5926 0ZM10.5926 1.11113L14.0741 5.18522H11.3333C10.963 5.18522 10.5926 4.81487 10.5926 4.44448V1.11113ZM14.2963 18.5185C14.2963 18.8889 14 19.2593 13.5555 19.2593H2.44443C2.07408 19.2593 1.70369 18.963 1.70369 18.5185V1.48148C1.70369 1.11113 1.99999 0.740741 2.44443 0.740741H9.85184V4.44444C9.85184 5.25928 10.5185 5.92593 11.3333 5.92593H14.2963V18.5185Z" fill="#0B4781"/>
<path d="M12.8148 11.8519H6.88889V12.5926H12.8148V11.8519Z" fill="#0B4781"/>
<path d="M12.8148 15.5556H6.88889V16.2963H12.8148V15.5556Z" fill="#0B4781"/>
<path d="M3.18518 9.62963H5.4074V7.40741H3.18518V9.62963ZM3.92592 8.14815H4.66666V8.88889H3.92592V8.14815Z" fill="#0B4781"/>
</svg>
