<svg width="60" height="60" viewBox="0 0 60 60" fill="none" xmlns="http://www.w3.org/2000/svg">
<g clip-path="url(#clip0)">
<path d="M25.8675 25.3338C21.2084 25.3338 17.418 29.1021 17.418 33.734C17.418 38.3658 21.2084 42.1341 25.8675 42.1341C30.5267 42.1341 34.3171 38.3658 34.3171 33.734C34.3171 29.1021 30.5267 25.3338 25.8675 25.3338ZM25.8675 39.7357C22.5387 39.7357 19.8305 37.0432 19.8305 33.734C19.8305 30.4247 22.5388 27.7322 25.8675 27.7322C29.1963 27.7322 31.9046 30.4246 31.9046 33.734C31.9046 37.0434 29.1964 39.7357 25.8675 39.7357Z" fill="#C0C0C0"/>
<path d="M25.8674 21.5661C19.1186 21.5661 13.6279 27.0246 13.6279 33.734C13.6279 40.4434 19.1186 45.9019 25.8674 45.9019C32.6163 45.9019 38.1069 40.4434 38.1069 33.734C38.1069 27.0246 32.6163 21.5661 25.8674 21.5661ZM25.8674 43.5035C20.4488 43.5035 16.0404 39.1209 16.0404 33.734C16.0404 28.3471 20.4489 23.9645 25.8674 23.9645C31.286 23.9645 35.6944 28.3471 35.6944 33.734C35.6944 39.1209 31.2861 43.5035 25.8674 43.5035Z" fill="#C0C0C0"/>
<path d="M58.7937 14.4358H56.1051C55.8278 13.5629 55.4748 12.716 55.0495 11.9035L56.9514 10.0128C57.4225 9.5444 57.4225 8.78517 56.9514 8.31682L51.8342 3.22955C51.3631 2.76119 50.5994 2.76119 50.1282 3.22955L48.226 5.12055C47.4079 4.6975 46.5565 4.34654 45.6804 4.07112V1.39784C45.6804 0.73548 45.1404 0.198639 44.4741 0.198639H37.2365C36.5703 0.198639 36.0303 0.73548 36.0303 1.39784V4.07085C35.1536 4.3464 34.3019 4.69737 33.4833 5.12055L31.5811 3.22955C31.11 2.76119 30.3463 2.76119 29.8752 3.22955L25.0586 8.01795H22.2981C21.6318 8.01795 21.0918 8.55479 21.0918 9.21715V12.4073C20.4793 12.5423 19.8729 12.7031 19.2763 12.8891L17.6728 10.128C17.5127 9.85259 17.2492 9.65153 16.9403 9.56932C16.6314 9.4871 16.3021 9.53014 16.0249 9.6891L9.84254 13.2373C9.5655 13.3964 9.36325 13.6583 9.28055 13.9654C9.19773 14.2727 9.24115 14.6 9.40105 14.8755L11.0079 17.6423C10.5474 18.063 10.1043 18.5035 9.68117 18.9613L6.89806 17.3638C6.62089 17.2048 6.29185 17.1618 5.98264 17.2441C5.67371 17.3264 5.41021 17.5273 5.25018 17.8028L1.68086 23.9489C1.34779 24.5225 1.54549 25.2559 2.12235 25.587L4.89969 27.1812C4.71272 27.7742 4.55081 28.3773 4.41504 28.9862H1.20626C0.540002 28.9862 0 29.5231 0 30.1854V37.2824C0 37.9448 0.540002 38.4816 1.20626 38.4816H4.41504C4.55081 39.0905 4.71272 39.6936 4.89969 40.2867L2.12235 41.8807C1.84531 42.0398 1.64306 42.3017 1.56036 42.6089C1.47753 42.9161 1.52096 43.2434 1.68086 43.5189L5.25018 49.6651C5.58337 50.2387 6.3212 50.4351 6.89793 50.104L9.68103 48.5066C10.104 48.9643 10.5473 49.405 11.0078 49.8256L9.40091 52.5925C9.24102 52.8679 9.19759 53.1953 9.28042 53.5025C9.36325 53.8096 9.56537 54.0716 9.8424 54.2307L16.0247 57.7791C16.6016 58.1102 17.3394 57.9138 17.6725 57.3402L19.2759 54.5791C19.8726 54.7651 20.4791 54.9261 21.0916 55.0609V58.2509C21.0916 58.9133 21.6316 59.4501 22.2978 59.4501H29.4366C30.1029 59.4501 30.6429 58.9133 30.6429 58.2509V55.0609C31.2554 54.926 31.862 54.765 32.4586 54.5791L34.0619 57.3402C34.3953 57.9138 35.133 58.1102 35.7097 57.7791L41.892 54.2307C42.1691 54.0716 42.3713 53.8096 42.454 53.5025C42.5368 53.1953 42.4934 52.8679 42.3335 52.5925L40.7267 49.8256C41.1872 49.405 41.6304 48.9643 42.0534 48.5066L44.8365 50.104C45.4136 50.4352 46.1513 50.2386 46.4843 49.6651L50.0536 43.5189C50.2136 43.2435 50.2569 42.9161 50.1741 42.6089C50.0913 42.3017 49.8891 42.0398 49.6121 41.8807L46.8348 40.2867C47.0217 39.6936 47.1836 39.0905 47.3194 38.4816H50.5289C51.1951 38.4816 51.7351 37.9448 51.7351 37.2824V35.3231C51.7694 35.2957 51.8028 35.2668 51.8342 35.2356L56.9514 30.147C57.4224 29.6787 57.4224 28.9195 56.9512 28.4512L55.0496 26.5606C55.4745 25.7492 55.8274 24.9027 56.105 24.0293H58.7937C59.46 24.0293 60 23.4924 60 22.8301V15.6349C60 14.9726 59.4599 14.4358 58.7937 14.4358ZM49.3226 36.0832H46.3288C45.742 36.0832 45.2403 36.5029 45.1402 37.0776C44.9415 38.2182 44.6394 39.3429 44.2424 40.4208C44.0408 40.9682 44.2642 41.5803 44.7719 41.8717L47.3618 43.3582L44.9986 47.4274L42.4032 45.9377C41.8958 45.6467 41.2511 45.76 40.875 46.2066C40.131 47.0904 39.3029 47.9137 38.4136 48.6536C37.9642 49.0275 37.8501 49.6684 38.1431 50.1729L39.6416 52.753L35.5485 55.1022L34.0532 52.5277C33.76 52.0228 33.1441 51.8008 32.5938 52.0012C31.5095 52.3959 30.378 52.6963 29.231 52.8937C28.6529 52.9934 28.2306 53.492 28.2306 54.0753V57.0516H23.5044V54.0753C23.5044 53.492 23.0822 52.9933 22.504 52.8937C21.357 52.6963 20.2255 52.3959 19.1412 52.0012C18.5906 51.8008 17.9749 52.023 17.6817 52.5277L16.1865 55.1022L12.0934 52.753L13.5919 50.1729C13.8848 49.6684 13.7708 49.0275 13.3214 48.6536C12.432 47.9136 11.6039 47.0904 10.86 46.2066C10.4837 45.7598 9.83919 45.6464 9.33175 45.9377L6.73642 47.4274L4.37336 43.3584L6.96306 41.8719C7.47076 41.5803 7.69419 40.9682 7.49261 40.421C7.09562 39.343 6.79352 38.2182 6.59489 37.0779C6.49463 36.5032 5.9931 36.0833 5.40632 36.0833H2.41252V31.3847H5.40632C5.9931 31.3847 6.49477 30.965 6.59489 30.3902C6.79352 29.2498 7.09562 28.1251 7.49261 27.0471C7.69419 26.4999 7.47076 25.8876 6.96306 25.5962L4.37323 24.1097L6.73642 20.0406L9.33175 21.5303C9.83932 21.8215 10.4837 21.708 10.86 21.2614C11.6043 20.3773 12.4324 19.554 13.3214 18.8143C13.7708 18.4405 13.8848 17.7996 13.5919 17.2951L12.0934 14.7149L16.1865 12.3656L17.6817 14.9401C17.9749 15.4449 18.5903 15.667 19.1412 15.4667C20.2256 15.072 21.3571 14.7717 22.5041 14.5741C23.0822 14.4746 23.5044 13.9758 23.5044 13.3925V10.4162H28.2306V13.3925C28.2306 13.9758 28.6528 14.4746 29.2309 14.5741C30.378 14.7717 31.5095 15.072 32.5938 15.4667C33.1441 15.6671 33.7601 15.445 34.0532 14.9403L35.5485 12.3657L39.6416 14.7151L38.1431 17.2952C37.8501 17.7997 37.9643 18.4406 38.4136 18.8145C39.3027 19.5542 40.1309 20.3776 40.875 21.2615C41.2511 21.7083 41.8958 21.8214 42.4032 21.5304L44.9987 20.0407L47.3618 24.1099L44.7719 25.5963C44.2642 25.8879 44.0408 26.5 44.2424 27.0472C44.6394 28.1251 44.9415 29.2499 45.1402 30.3905C45.2403 30.9652 45.742 31.3849 46.3288 31.3849H49.3226V36.0832ZM57.5875 21.631H55.1937C54.6409 21.631 54.1589 22.0046 54.0239 22.5376C53.7015 23.8114 53.1946 25.0273 52.517 26.1513C52.2328 26.6231 52.3077 27.2267 52.6989 27.6155L54.3926 29.2993L51.7351 31.942V30.1856C51.7351 29.5232 51.1951 28.9864 50.5289 28.9864H47.3199C47.1842 28.3774 47.0223 27.7744 46.8353 27.1813L49.6126 25.5872C49.8897 25.4281 50.0919 25.1661 50.1746 24.859C50.2574 24.5518 50.214 24.2245 50.0541 23.949L46.4848 17.8029C46.1516 17.2293 45.4139 17.033 44.8371 17.364L42.0539 18.9614C41.631 18.5036 41.1877 18.063 40.7272 17.6425L42.3341 14.8756C42.494 14.6002 42.5374 14.2728 42.4546 13.9656C42.3717 13.6585 42.1696 13.3965 41.8926 13.2374L35.7102 9.68884C35.4332 9.52974 35.104 9.4867 34.7948 9.56905C34.4859 9.65139 34.2224 9.85233 34.0623 10.1277L32.4588 12.8888C31.8623 12.7028 31.2556 12.542 30.6433 12.407V9.21702C30.6433 8.55466 30.1033 8.01782 29.437 8.01782H28.4705L30.7282 5.77332L32.4218 7.45699C32.8127 7.84567 33.4189 7.92028 33.8933 7.6386C35.0307 6.96306 36.2545 6.45886 37.5307 6.13987C38.067 6.00583 38.4429 5.52655 38.4429 4.97678V2.59704H43.268V4.97678C43.268 5.52641 43.6438 6.00556 44.1799 6.13974C45.4556 6.45886 46.679 6.96319 47.8161 7.6386C48.2906 7.92042 48.8971 7.84567 49.2876 7.45699L50.9812 5.77332L54.3925 9.16465L52.6989 10.8483C52.308 11.237 52.2328 11.8403 52.5168 12.312C53.1951 13.4389 53.7021 14.6551 54.0238 15.9272C54.1586 16.4603 54.6407 16.8341 55.1937 16.8341H57.5875V21.631Z" fill="#C0C0C0"/>
</g>
<defs>
<clipPath id="clip0">
<rect width="60" height="59.6488" fill="white"/>
</clipPath>
</defs>
</svg>
