<svg width="60" height="60" viewBox="0 0 60 60" fill="none" xmlns="http://www.w3.org/2000/svg">
<path d="M51.2131 8.73531C45.5469 3.10222 38.0132 0 30 0C21.9868 0 14.4531 3.10222 8.78673 8.73531C3.12049 14.3684 0 21.858 0 29.8244C0 37.7908 3.12049 45.2803 8.78673 50.9135C14.453 56.5466 21.9866 59.6488 29.9999 59.6488C38.0132 59.6488 45.5468 56.5466 51.2131 50.9135C56.8794 45.2804 59.9999 37.7908 59.9999 29.8244C59.9999 21.858 56.8794 14.3684 51.2131 8.73531ZM30 57.2878C14.7674 57.2878 2.3749 44.9677 2.3749 29.8244C2.3749 14.6811 14.7674 2.361 30 2.361C45.2326 2.361 57.6251 14.6811 57.6251 29.8244C57.625 44.9677 45.2325 57.2878 30 57.2878Z" fill="#C0C0C0"/>
<path d="M29.9998 7.46796C17.5999 7.46796 7.51172 17.497 7.51172 29.8244C7.51172 42.1518 17.5998 52.1808 29.9998 52.1808C42.3998 52.1808 52.4878 42.1518 52.4878 29.8244C52.4878 17.497 42.3997 7.46796 29.9998 7.46796ZM29.9998 49.8198C18.9094 49.8198 9.88662 40.8499 9.88662 29.8244C9.88662 18.7989 18.9093 9.82896 29.9998 9.82896C41.0903 9.82896 50.1129 18.7988 50.1129 29.8244C50.1129 40.85 41.0902 49.8198 29.9998 49.8198Z" fill="#C0C0C0"/>
<path d="M34.1741 29.8244C34.1741 27.5362 32.3016 25.6747 29.9998 25.6747C27.6982 25.6747 25.8257 27.5362 25.8257 29.8244C25.8257 32.1126 27.6982 33.9742 29.9998 33.9742C32.3016 33.9742 34.1741 32.1126 34.1741 29.8244ZM28.2006 29.8244C28.2006 28.8381 29.0078 28.0357 29.9998 28.0357C30.992 28.0357 31.7992 28.8382 31.7992 29.8244C31.7992 30.8108 30.992 31.6132 29.9998 31.6132C29.0078 31.6132 28.2006 30.8107 28.2006 29.8244Z" fill="#C0C0C0"/>
<path d="M30 11.5277C19.8518 11.5277 11.5957 19.7355 11.5957 29.8243C11.5957 39.9131 19.8519 48.1209 30 48.1209C40.1482 48.1209 48.4044 39.9131 48.4044 29.8243C48.4044 19.7355 40.1482 11.5277 30 11.5277ZM46.0294 29.8244C46.0294 31.5439 45.7528 33.2003 45.2437 34.753L38.7502 30.5092C38.4148 30.2901 38.3786 29.9573 38.3786 29.8244C38.3786 29.6915 38.4148 29.3586 38.7502 29.1396L45.2435 24.8958C45.753 26.4484 46.0294 28.1048 46.0294 29.8244ZM41.9075 19.168L34.9712 22.632C34.6124 22.8112 34.3046 22.6758 34.1888 22.6095C34.0731 22.543 33.8011 22.3454 33.7779 21.9471L33.3279 14.2351C36.6985 14.9455 39.681 16.7115 41.9075 19.168ZM26.6713 14.2353L26.2213 21.9482C26.198 22.3465 25.9262 22.5441 25.8105 22.6105C25.6947 22.677 25.3866 22.8121 25.0281 22.6331L18.0922 19.1683C20.3186 16.7118 23.3011 14.9458 26.6713 14.2353ZM13.9705 29.8244C13.9705 28.1049 14.247 26.4487 14.7562 24.896L21.2491 29.1395C21.5845 29.3586 21.6207 29.6914 21.6207 29.8243C21.6207 29.9572 21.5845 30.2899 21.2491 30.5091L14.7562 34.7526C14.247 33.2 13.9705 31.5437 13.9705 29.8244ZM18.0925 40.4808L25.0281 37.0165C25.3869 36.8375 25.6947 36.9727 25.8105 37.0391C25.9262 37.1056 26.1982 37.3031 26.2214 37.7014L26.6714 45.4134C23.3012 44.703 20.319 42.9371 18.0925 40.4808ZM29.0689 45.7324L28.5923 37.5647C28.5297 36.4924 27.9337 35.5316 26.9981 34.9945C26.0624 34.4574 24.9273 34.4247 23.9621 34.9069L16.6124 38.5778C16.2711 38.0636 15.9588 37.5289 15.6782 36.9756L22.5538 32.482C23.4566 31.892 23.9956 30.8984 23.9956 29.8243C23.9956 28.7502 23.4566 27.7566 22.5538 27.1665L15.6782 22.6729C15.9588 22.1198 16.271 21.5853 16.612 21.0713L23.9617 24.7428C24.4159 24.9697 24.9077 25.0826 25.3986 25.0826C25.9512 25.0826 26.5024 24.9396 26.9979 24.6553C27.9336 24.1181 28.5295 23.1573 28.5921 22.0851L29.0686 13.9164C29.3768 13.8988 29.6872 13.8888 29.9997 13.8888C30.3122 13.8888 30.6223 13.8988 30.9304 13.9164L31.407 22.084C31.4697 23.1563 32.0655 24.1171 33.0012 24.6542C33.4966 24.9386 34.048 25.0817 34.6006 25.0817C35.0914 25.0817 35.5831 24.9689 36.0372 24.742L43.3876 21.0711C43.7288 21.5852 44.0409 22.1197 44.3216 22.6728L37.4456 27.1666C36.5427 27.7567 36.0037 28.7502 36.0037 29.8243C36.0037 30.8984 36.5427 31.892 37.4456 32.482L44.3217 36.9759C44.0411 37.529 43.7289 38.0635 43.3878 38.5774L36.0376 34.9057C35.0722 34.4234 33.9372 34.4562 33.0015 34.9932C32.0658 35.5302 31.4698 36.4911 31.4071 37.5635L30.9306 45.7324C30.6225 45.75 30.3124 45.76 30 45.76C29.6873 45.76 29.3771 45.75 29.0689 45.7324ZM33.328 45.4136L33.7781 37.7003C33.8013 37.302 34.0731 37.1044 34.1889 37.0379C34.3046 36.9716 34.6127 36.8362 34.9713 37.0154L41.9077 40.4804C39.6811 42.937 36.6985 44.7032 33.328 45.4136Z" fill="#C0C0C0"/>
</svg>
