<svg width="20" height="12" viewBox="0 0 20 12" fill="none" xmlns="http://www.w3.org/2000/svg">
<path fill-rule="evenodd" clip-rule="evenodd" d="M10 10.8002C7.23875 10.8002 5 8.651 5 6.0002C5 3.3494 7.23875 1.2002 10 1.2002C12.7612 1.2002 15 3.3494 15 6.0002C15 8.651 12.7612 10.8002 10 10.8002ZM10 0C4.4775 0 0 4.8 0 6C0 7.2 4.4775 12 10 12C15.5225 12 20 7.2 20 6C20 4.8 15.5225 0 10 0ZM10 3.6001C8.61875 3.6001 7.5 4.6741 7.5 6.0001C7.5 7.3261 8.61875 8.4001 10 8.4001C11.38 8.4001 12.5 7.3261 12.5 6.0001C12.5 4.6741 11.38 3.6001 10 3.6001Z" fill="#CBCBCB"/>
</svg>
