<svg width="60" height="59" viewBox="0 0 60 59" fill="none" xmlns="http://www.w3.org/2000/svg">
<g clip-path="url(#clip0)">
<path d="M12.9805 17.8323C12.9803 17.8323 12.9801 17.8323 12.98 17.8323C11.4126 17.7321 10.055 18.8958 9.934 20.443C9.82275 21.9955 11.0061 23.3431 12.5774 23.4534C12.6445 23.4534 12.7136 23.4602 12.7807 23.4602C14.2753 23.4569 15.5145 22.3155 15.6224 20.8427C15.7343 19.2906 14.5514 17.9428 12.9805 17.8323ZM13.6519 20.7013C13.6162 21.1788 13.1969 21.538 12.7136 21.5056C12.2298 21.4719 11.8652 21.0574 11.8985 20.5795C11.9341 20.1257 12.317 19.7753 12.7777 19.7752C12.7982 19.7752 12.8172 19.7752 12.8379 19.7752C13.3215 19.809 13.6858 20.2235 13.6519 20.7013Z" fill="#A8A8A8"/>
<path d="M58.2159 21.4471C58.7608 21.4471 59.2026 21.0106 59.2026 20.4722V12.1283C59.2005 10.8713 58.3857 9.75632 57.1789 9.3587L52.8186 7.91784L45.8909 1.35599C44.9736 0.48409 43.7498 -0.00200493 42.4769 -5.51924e-05H23.2084C22.0003 -0.000542628 20.834 0.437661 19.9316 1.23121L12.3852 7.86032L4.12446 9.22514C1.74328 9.60924 -0.00394017 11.6437 6.67326e-06 14.0274V20.4722C6.67326e-06 21.0106 0.441806 21.4471 0.986717 21.4471H5.9992C6.21431 22.9295 6.91882 24.3003 8.00321 25.3466H0.986717C0.441806 25.3466 6.67326e-06 25.7831 6.67326e-06 26.3214V30.2209C6.67326e-06 30.7593 0.441806 31.1958 0.986717 31.1958H4.67208L23.6653 41.9194L4.67208 52.6429H0.986717C0.441806 52.6429 6.67326e-06 53.0794 6.67326e-06 53.6178V57.5173C6.67326e-06 58.0557 0.441806 58.4922 0.986717 58.4922H58.2159C58.7608 58.4922 59.2026 58.0557 59.2026 57.5173V53.6178C59.2026 53.0794 58.7608 52.6429 58.2159 52.6429H54.5305L35.5374 41.9194L54.5305 31.1958H58.2159C58.7608 31.1958 59.2026 30.7593 59.2026 30.2209V26.3214C59.2026 25.7831 58.7608 25.3466 58.2159 25.3466H53.1728C54.2572 24.3003 54.9617 22.9295 55.1768 21.4471H58.2159ZM36.5083 1.94969H42.4769C43.2405 1.94834 43.9748 2.23983 44.5253 2.76273L49.8417 7.79891H36.5083V1.94969ZM21.2409 2.68864C21.783 2.21253 22.4831 1.94956 23.2084 1.94969H34.5349V7.79891H15.4223L21.2409 2.68864ZM41.5208 21.4471C41.7359 22.9295 42.4404 24.3003 43.5248 25.3466H17.6513C18.7357 24.3003 19.4402 22.9295 19.6553 21.4471H41.5208ZM7.47927 16.1623C7.36777 16.2969 7.26318 16.4372 7.16254 16.5796C7.14182 16.6098 7.11912 16.6371 7.0984 16.6663C6.97864 16.8418 6.86751 17.0225 6.76489 17.2084C6.73825 17.2551 6.71753 17.3058 6.69188 17.3536C6.61886 17.493 6.54782 17.6334 6.48467 17.7787C6.45309 17.8508 6.42744 17.9249 6.39882 17.997C6.3485 18.1228 6.30015 18.2476 6.25772 18.3762C6.23009 18.4601 6.20839 18.5449 6.18372 18.6297C6.14919 18.7525 6.11564 18.8754 6.08505 19.0011C6.06531 19.0908 6.04953 19.1825 6.03275 19.2741C6.01894 19.3482 6.00019 19.4213 5.98934 19.4973H1.97343V15.5979H3.94685V13.6481H2.00796C2.17065 12.3717 3.16254 11.3524 4.44711 11.1417L12.9091 9.74865H34.5349V19.4973H19.6642C19.6533 19.4223 19.6346 19.3492 19.6207 19.2751C19.604 19.1825 19.5882 19.0908 19.5675 19.0002C19.5398 18.8754 19.5063 18.7525 19.4688 18.6307C19.4441 18.5459 19.4224 18.4601 19.3948 18.3762C19.3524 18.2476 19.304 18.1228 19.2537 17.997C19.2251 17.9249 19.1994 17.8508 19.1678 17.7787C19.1047 17.6334 19.0336 17.493 18.9606 17.3536C18.935 17.3058 18.9143 17.2561 18.8876 17.2084C18.785 17.0218 18.6739 16.8414 18.5541 16.6673C18.5334 16.6351 18.5087 16.6069 18.486 16.5757C18.3874 16.4343 18.2887 16.2959 18.1732 16.1623C18.1278 16.1068 18.0746 16.0551 18.0292 16.0005C17.9374 15.8962 17.8456 15.7928 17.748 15.6954C17.6897 15.6369 17.6286 15.5823 17.5684 15.5257C17.4746 15.438 17.3799 15.3503 17.2812 15.2674C17.2142 15.2118 17.1461 15.1592 17.077 15.1065C16.9783 15.0295 16.8797 14.9554 16.781 14.8843C16.707 14.8326 16.632 14.7868 16.556 14.7361C16.4524 14.6698 16.3478 14.6064 16.2403 14.5411C16.1603 14.4963 16.0804 14.4534 15.9995 14.4115C15.89 14.3549 15.7775 14.3023 15.665 14.2516C15.5811 14.2145 15.4983 14.1775 15.4134 14.1434C15.296 14.0966 15.1766 14.0546 15.0562 14.0147C14.9714 13.9854 14.8875 13.9552 14.8007 13.9299C14.6734 13.8928 14.5441 13.8626 14.4149 13.8324C14.331 13.8129 14.2481 13.7914 14.1632 13.7749C14.0182 13.7466 13.8672 13.7271 13.7232 13.7076C13.6502 13.6988 13.5791 13.6852 13.5051 13.6783C13.2811 13.6608 13.0552 13.6481 12.8272 13.6481C12.5993 13.6481 12.3734 13.6608 12.1513 13.6822C12.0773 13.6891 12.0063 13.7027 11.9333 13.7115C11.7853 13.731 11.6373 13.7505 11.4932 13.7788C11.4083 13.7953 11.3255 13.8168 11.2426 13.8363C11.1123 13.8665 10.9831 13.8977 10.8558 13.9338C10.769 13.9591 10.6851 13.9893 10.6002 14.0186C10.4799 14.0585 10.3605 14.1005 10.243 14.1473C10.1582 14.1814 10.0753 14.2184 9.99144 14.2555C9.87895 14.3062 9.76646 14.3588 9.65694 14.4153C9.57603 14.4573 9.49611 14.5002 9.41618 14.545C9.30863 14.6054 9.20404 14.6688 9.09945 14.74C9.02446 14.7878 8.94947 14.8375 8.87547 14.8872C8.77679 14.9584 8.67319 15.0334 8.57945 15.1104C8.51038 15.1631 8.4423 15.2157 8.3752 15.2713C8.27653 15.3541 8.17786 15.4419 8.08807 15.5296C8.02788 15.5862 7.96671 15.6408 7.90849 15.6993C7.80982 15.7967 7.71904 15.9001 7.62728 16.0044C7.57498 16.0551 7.52367 16.1068 7.47828 16.1623H7.47927ZM7.89369 20.4722C7.89369 17.7802 10.1026 15.5979 12.8272 15.5979C15.5519 15.5979 17.7608 17.7802 17.7608 20.4722C17.7608 23.1642 15.5519 25.3466 12.8272 25.3466C10.1039 25.3434 7.8969 23.1629 7.89369 20.4722ZM24.9253 43.4538C24.9253 43.4675 24.9381 43.4801 24.9431 43.4938C25.0383 43.7597 25.1564 44.017 25.2963 44.263C25.321 44.3078 25.3466 44.3507 25.3733 44.3946C25.5194 44.6382 25.6869 44.8688 25.8735 45.0838C25.8824 45.0935 25.8883 45.1062 25.8972 45.116L12.5648 52.6429H8.64951L24.9253 43.4538ZM27.6417 46.3784C28.8905 46.9219 30.3131 46.9219 31.5619 46.3784L42.6594 52.6429H16.5422L27.6417 46.3784ZM57.2292 54.5927V56.5424H1.97343V54.5927H57.2292ZM50.5531 52.6429H46.6379L32.0789 44.4238C31.7726 44.2515 31.3965 44.2537 31.0922 44.4297C30.1783 44.9794 29.0303 44.9794 28.1163 44.4297C27.205 43.9144 26.6422 42.9569 26.6412 41.9194C26.6412 41.8335 26.6296 41.7478 26.6066 41.6649C26.6007 41.6425 26.5879 41.622 26.58 41.6006C26.5615 41.5418 26.5375 41.4851 26.508 41.431C26.4942 41.4066 26.4725 41.3871 26.4567 41.3637C26.4261 41.3167 26.3914 41.2723 26.3531 41.2311C26.3247 41.2071 26.2951 41.1847 26.2643 41.1638C26.2285 41.1317 26.1903 41.1023 26.1498 41.0761L8.64951 31.1958H12.5648L27.1237 39.4149C27.4301 39.5872 27.8061 39.585 28.1104 39.4091C29.0243 38.8594 30.1724 38.8594 31.0863 39.4091C31.9977 39.9243 32.5605 40.882 32.5614 41.9194C32.5614 42.0053 32.573 42.0909 32.596 42.1738C32.6019 42.1962 32.6147 42.2167 32.6226 42.2381C32.6411 42.2969 32.6652 42.3537 32.6946 42.4078C32.7085 42.4321 32.7302 42.4516 32.746 42.475C32.7766 42.5221 32.8112 42.5664 32.8496 42.6076C32.8779 42.6316 32.9075 42.6542 32.9384 42.6749C32.9741 42.7071 33.0124 42.7364 33.0528 42.7626L50.5531 52.6429ZM16.5432 31.1958H42.6604L31.5609 37.4623C30.3122 36.9178 28.8894 36.9178 27.6407 37.4623L16.5432 31.1958ZM34.2773 40.3849C34.2773 40.3713 34.2645 40.3586 34.2596 40.3449C34.1644 40.0791 34.0462 39.8217 33.9063 39.5758C33.8817 39.5309 33.856 39.488 33.8294 39.4442C33.6832 39.2006 33.5157 38.9699 33.3291 38.7549C33.3202 38.7452 33.3143 38.7325 33.3054 38.7228L46.6379 31.1958H50.5531L34.2773 40.3849ZM57.2292 27.2963V29.246H1.97343V27.2963H57.2292ZM48.3488 25.3466C45.6241 25.3466 43.4153 23.1642 43.4153 20.4722C43.4153 17.7802 45.6241 15.5979 48.3488 15.5979C51.0735 15.5979 53.2824 17.7802 53.2824 20.4722C53.2792 23.1629 51.0723 25.3434 48.3488 25.3466ZM55.089 19.0002C55.0614 18.8754 55.0279 18.7525 54.9904 18.6307C54.9657 18.5459 54.944 18.4601 54.9164 18.3762C54.8739 18.2476 54.8256 18.1228 54.7753 17.997C54.7466 17.9249 54.721 17.8508 54.6894 17.7787C54.6263 17.6334 54.5552 17.493 54.4822 17.3536C54.4565 17.3058 54.4358 17.2561 54.4092 17.2084C54.3066 17.0218 54.1954 16.8414 54.0757 16.6673C54.055 16.6351 54.0303 16.6069 54.0076 16.5757C53.9089 16.4343 53.8102 16.2959 53.6948 16.1623C53.6494 16.1068 53.5961 16.0551 53.5507 16.0005C53.459 15.8962 53.3672 15.7928 53.2695 15.6954C53.2113 15.6369 53.1501 15.5823 53.09 15.5257C52.9962 15.438 52.9015 15.3503 52.8028 15.2674C52.7357 15.2118 52.6676 15.1592 52.5986 15.1065C52.4999 15.0295 52.4012 14.9554 52.3026 14.8843C52.2286 14.8326 52.1536 14.7868 52.0776 14.7361C51.974 14.6698 51.8694 14.6064 51.7618 14.5411C51.6819 14.4963 51.602 14.4534 51.5211 14.4115C51.4116 14.3549 51.2991 14.3023 51.1866 14.2516C51.1027 14.2145 51.0198 14.1775 50.935 14.1434C50.8176 14.0966 50.6982 14.0546 50.5778 14.0147C50.4929 13.9854 50.4091 13.9552 50.3222 13.9299C50.1949 13.8928 50.0657 13.8626 49.9364 13.8324C49.8526 13.8129 49.7697 13.7914 49.6848 13.7749C49.5398 13.7466 49.3888 13.7271 49.2447 13.7076C49.1717 13.6988 49.1007 13.6852 49.0267 13.6783C48.8027 13.6608 48.5767 13.6481 48.3488 13.6481C48.1209 13.6481 47.8949 13.6608 47.6729 13.6822C47.5989 13.6891 47.5279 13.7027 47.4549 13.7115C47.3068 13.731 47.1588 13.7505 47.0148 13.7788C46.9299 13.7953 46.847 13.8168 46.7642 13.8363C46.6339 13.8665 46.5046 13.8977 46.3774 13.9338C46.2905 13.9591 46.2067 13.9893 46.1218 14.0186C46.0014 14.0585 45.882 14.1005 45.7646 14.1473C45.6798 14.1814 45.5969 14.2184 45.513 14.2555C45.4005 14.3062 45.288 14.3588 45.1785 14.4153C45.0976 14.4573 45.0177 14.5002 44.9378 14.545C44.8302 14.6054 44.7256 14.6688 44.621 14.74C44.546 14.7878 44.471 14.8375 44.397 14.8872C44.2984 14.9584 44.1997 15.0334 44.101 15.1104C44.032 15.1631 43.9639 15.2157 43.8968 15.2713C43.7981 15.3541 43.6994 15.4419 43.6096 15.5296C43.5494 15.5862 43.4883 15.6408 43.4301 15.6993C43.3314 15.7967 43.2406 15.9001 43.1488 16.0044C43.1015 16.059 43.0502 16.1106 43.0048 16.1662C42.8933 16.3007 42.7887 16.4411 42.6881 16.5835C42.6673 16.6137 42.6446 16.641 42.6239 16.6702C42.5049 16.8457 42.3936 17.0264 42.2904 17.2123C42.2638 17.259 42.243 17.3097 42.2174 17.3575C42.1444 17.4969 42.0733 17.6373 42.0102 17.7826C41.9786 17.8547 41.953 17.9288 41.9243 18.0009C41.874 18.1267 41.8257 18.2515 41.7832 18.3801C41.7556 18.464 41.7339 18.5488 41.7092 18.6336C41.6747 18.7564 41.6412 18.8793 41.6106 19.005C41.5908 19.0947 41.575 19.1864 41.5583 19.278C41.5445 19.3521 41.5257 19.4252 41.5149 19.5012H36.5083V9.74865H52.1358L56.5543 11.2041C56.9571 11.3367 57.2288 11.7089 57.2292 12.1283V12.6733H55.2558V14.623H57.2292V19.4973H55.1857C55.1749 19.4223 55.1561 19.3492 55.1423 19.2751C55.1255 19.1825 55.1097 19.0908 55.089 19.0002Z" fill="#A8A8A8"/>
<path d="M48.5024 17.8323C48.5022 17.8323 48.5021 17.8323 48.5019 17.8323C46.9351 17.7338 45.5785 18.8965 45.456 20.443C45.3447 21.9955 46.528 23.3431 48.0994 23.4534C48.1665 23.4534 48.2355 23.4602 48.3026 23.4602C49.7973 23.4569 51.0364 22.3155 51.1444 20.8427C51.2561 19.2906 50.0733 17.9428 48.5024 17.8323ZM49.1767 20.7013C49.142 21.1796 48.7226 21.5403 48.2384 21.5085C47.7546 21.4748 47.39 21.0603 47.4234 20.5824C47.4574 20.1286 47.839 19.777 48.2995 19.7752C48.3213 19.7752 48.341 19.7752 48.3627 19.7752C48.8463 19.809 49.2107 20.2235 49.1767 20.7013Z" fill="#A8A8A8"/>
<path d="M32.5614 11.6984H26.6411V13.6482H32.5614V11.6984Z" fill="#A8A8A8"/>
<path d="M30.5882 40.9446H28.6147V42.8943H30.5882V40.9446Z" fill="#A8A8A8"/>
</g>
<defs>
<clipPath id="clip0">
<rect width="59.2026" height="58.4922" fill="white"/>
</clipPath>
</defs>
</svg>
