<svg width="20" height="20" viewBox="0 0 20 20" fill="none" xmlns="http://www.w3.org/2000/svg">
<path fill-rule="evenodd" clip-rule="evenodd" d="M10.9091 3.63636V1.81818C10.9091 0.812727 11.7236 0 12.7273 0C12.9782 0 13.2182 0.0509091 13.4345 0.143636C13.6527 0.234545 13.8491 0.367273 14.0127 0.532727L15.8309 2.35091L19.4673 5.98727C19.7964 6.31636 20 6.77091 20 7.27273C20 7.77455 19.7964 8.22909 19.4673 8.55818L15.8309 12.1945L14.0127 14.0127C13.6836 14.3418 13.2291 14.5455 12.7273 14.5455C11.7236 14.5455 10.9091 13.7309 10.9091 12.7273V10.9091C6.18909 12.3618 1.81818 15.2073 1.81818 20H0C0 13.2255 4.64 5.25091 10.9091 3.63636Z" fill="#CBCBCB"/>
</svg>
