<svg width="35" height="51" viewBox="0 0 35 51" fill="none" xmlns="http://www.w3.org/2000/svg">
<path fill-rule="evenodd" clip-rule="evenodd" d="M17.5 34.7855C17.5 34.7855 17.5 34.7855 17.5 34.7855L17.5 50.2511C17.0553 50.2511 16.4129 49.6088 16.4129 49.6088C-2.3301 28.0543 0.0985497 17.4303 0.107206 17.3928C0.107206 17.3928 0.107206 17.3928 0.107206 17.3928C0.107206 7.787 7.89421 0 17.5 0C27.1057 0 34.8927 7.787 34.8927 17.3928C34.8927 17.3928 34.8927 17.3928 34.8927 17.3929C34.8928 17.3927 34.8928 17.3926 34.8928 17.3926C34.8928 17.3926 37.3633 28.016 18.5871 49.6088C18.5871 49.6088 17.9447 50.2511 17.5 50.2511V34.7855Z" fill="#A43E3D"/>
<g clip-path="url(#clip0)">
<path d="M17.5 10.5C13.64 10.5 10.5 13.64 10.5 17.5C10.5 21.36 13.64 24.5 17.5 24.5C21.36 24.5 24.5 21.36 24.5 17.5C24.5 13.64 21.36 10.5 17.5 10.5ZM17.5 23.5C14.1915 23.5 11.5 20.8085 11.5 17.5C11.5 14.1915 14.1915 11.5 17.5 11.5C20.8085 11.5 23.5 14.1915 23.5 17.5C23.5 20.8085 20.8085 23.5 17.5 23.5Z" fill="white"/>
<path d="M29.61 14.5H28.601C28.3435 13.544 27.965 12.629 27.471 11.7715L28.184 11.0585C28.4465 10.796 28.591 10.4465 28.591 10.0755C28.591 9.704 28.4465 9.355 28.184 9.092L25.9075 6.8155C25.3825 6.291 24.467 6.29 23.941 6.8155L23.228 7.5285C22.37 7.035 21.4555 6.6565 20.5 6.399V5.39C20.5 4.6235 19.8765 4 19.11 4H15.89C15.1235 4 14.5 4.6235 14.5 5.39V6.399C13.5445 6.6565 12.63 7.035 11.7715 7.529L11.0585 6.816C10.533 6.29 9.617 6.291 9.092 6.816L6.8155 9.0925C6.553 9.355 6.4085 9.7045 6.4085 10.076C6.4085 10.447 6.553 10.796 6.8155 11.059L7.5285 11.772C7.035 12.629 6.656 13.544 6.399 14.5H5.39C4.6235 14.5 4 15.1235 4 15.89V19.1095C4 19.8765 4.6235 20.5 5.39 20.5H6.399C6.6565 21.4555 7.035 22.37 7.529 23.2285L6.816 23.9415C6.5535 24.204 6.409 24.5535 6.409 24.9245C6.409 25.296 6.5535 25.645 6.816 25.908L9.0925 28.1845C9.6175 28.71 10.5335 28.7105 11.059 28.1845L11.772 27.4715C12.6305 27.965 13.545 28.344 14.5005 28.6015V29.6105C14.5005 30.377 15.124 31.0005 15.8905 31.0005H19.11C19.8765 31.0005 20.5 30.377 20.5 29.6105V28.6015C21.4555 28.344 22.37 27.9655 23.2285 27.4715L23.9415 28.1845C24.4675 28.7105 25.3825 28.7095 25.908 28.1845L28.1845 25.908C28.447 25.6455 28.5915 25.296 28.5915 24.9245C28.5915 24.5535 28.447 24.2045 28.1845 23.9415L27.4715 23.2285C27.965 22.37 28.344 21.4555 28.6015 20.5H29.6105C30.377 20.5 31.0005 19.8765 31.0005 19.11V15.89C31 15.1235 30.3765 14.5 29.61 14.5ZM30 19.11C30 19.325 29.825 19.5 29.61 19.5H27.814L27.724 19.8865C27.4635 21.005 27.0245 22.0665 26.4175 23.042L26.2075 23.379L27.477 24.6485C27.6295 24.801 27.6295 25.0485 27.477 25.2005L25.2005 27.477C25.0485 27.629 24.801 27.63 24.6485 27.477L23.379 26.2075L23.042 26.4175C22.067 27.0245 21.0055 27.464 19.8865 27.724L19.5 27.814V29.61C19.5 29.825 19.325 30 19.11 30H15.89C15.675 30 15.5 29.825 15.5 29.61V27.814L15.1135 27.724C13.995 27.4635 12.9335 27.0245 11.958 26.4175L11.621 26.2075L10.3515 27.477C10.1985 27.63 9.951 27.629 9.7995 27.477L7.523 25.2005C7.3705 25.048 7.3705 24.8005 7.523 24.6485L8.7925 23.379L8.5825 23.042C7.9755 22.067 7.536 21.0055 7.276 19.8865L7.186 19.5H5.39C5.175 19.5 5 19.325 5 19.11V15.89C5 15.675 5.175 15.5 5.39 15.5H7.186L7.276 15.1135C7.5365 13.9945 7.9755 12.933 8.5825 11.958L8.7925 11.621L7.523 10.3515C7.3705 10.199 7.3705 9.9515 7.523 9.7995L9.7995 7.523C9.9515 7.371 10.199 7.37 10.3515 7.523L11.621 8.7925L11.958 8.5825C12.933 7.9755 13.9945 7.536 15.1135 7.276L15.5 7.186V5.39C15.5 5.175 15.675 5 15.89 5H19.1095C19.325 5 19.5 5.175 19.5 5.39V7.186L19.8865 7.276C21.005 7.5365 22.0665 7.9755 23.042 8.5825L23.379 8.7925L24.6485 7.523C24.8015 7.37 25.049 7.371 25.2005 7.523L27.477 9.7995C27.6295 9.952 27.6295 10.1995 27.477 10.3515L26.2075 11.621L26.4175 11.958C27.0245 12.9325 27.464 13.994 27.724 15.1135L27.814 15.5H29.61C29.825 15.5 30 15.675 30 15.89V19.11Z" fill="white"/>
<path d="M17.5 12.5001C14.743 12.5001 12.5 14.7431 12.5 17.5001C12.5 20.2571 14.743 22.5001 17.5 22.5001C20.257 22.5001 22.5 20.2571 22.5 17.5001C22.5 14.7431 20.257 12.5001 17.5 12.5001ZM17.5 21.5001C15.2945 21.5001 13.5 19.7056 13.5 17.5001C13.5 15.2946 15.2945 13.5001 17.5 13.5001C19.7055 13.5001 21.5 15.2946 21.5 17.5001C21.5 19.7056 19.7055 21.5001 17.5 21.5001Z" fill="white"/>
</g>
<defs>
<clipPath id="clip0">
<rect width="27" height="27" fill="white" transform="translate(4 4)"/>
</clipPath>
</defs>
</svg>
