<svg width="60" height="59" viewBox="0 0 60 59" fill="none" xmlns="http://www.w3.org/2000/svg">
<g clip-path="url(#clip0)">
<path d="M58.1918 50.7747C58.0675 50.721 57.9333 50.6934 57.7976 50.6933H49.747V44.844H57.7976C58.3425 44.8438 58.7841 44.407 58.7838 43.8687C58.7837 43.7346 58.7557 43.602 58.7014 43.4792C56.3286 38.0675 49.9647 35.5808 44.4873 37.9251C43.9135 38.1707 43.3623 38.465 42.8401 38.8047V37.0451H40.8666V40.423C40.1624 41.1601 39.5674 41.9922 39.0994 42.8943H30.9995V35.7982L36.2449 34.0707C36.648 33.938 36.9199 33.5654 36.9198 33.1456V30.221H41.8534C44.5767 30.2241 46.7837 32.4047 46.7869 35.0953H48.7603C48.756 31.3283 45.6661 28.2755 41.8534 28.2712H34.9464V25.0025C37.9952 23.2633 39.8753 20.051 39.8799 16.5728V11.6984H44.8135V9.7487H39.8799V5.84922C39.8767 2.62009 37.228 0.00316833 33.9597 0H26.066C22.7976 0.00316833 20.1489 2.62009 20.1457 5.84922V9.7487H16.1989C15.654 9.7487 15.2122 10.1852 15.2122 10.7236V16.5728C15.2122 17.1112 15.654 17.5477 16.1989 17.5477H17.1856V22.422C17.1856 22.7479 17.3503 23.0523 17.6247 23.2331L20.5848 25.1828L21.6801 23.5607L19.159 21.9005V17.5477H20.1961C20.5185 20.663 22.3349 23.4359 25.0793 25.0025V28.2712H18.1723C14.3595 28.2755 11.2697 31.3283 11.2653 35.0953H13.2388C13.242 32.4047 15.449 30.2241 18.1723 30.221H23.1059V33.1456C23.1057 33.5654 23.3777 33.938 23.7808 34.0707L29.0261 35.7982V42.8943H20.9262C20.4583 41.9922 19.8633 41.1601 19.159 40.423V37.0451H17.1856V38.7998C12.1672 35.5696 5.44857 36.9704 2.17898 41.9284C-1.09049 46.8866 0.327292 53.5246 5.34558 56.755C7.10685 57.8886 9.16341 58.4922 11.2653 58.4922C15.3419 58.4897 19.0733 56.2305 20.9262 52.643H39.0994C41.8193 57.9147 48.3496 60.0098 53.6854 57.3226C55.9243 56.1951 57.6975 54.3341 58.7014 52.0581C58.9195 51.5647 58.6913 50.99 58.1918 50.7747ZM20.1457 15.5979H17.1856V11.6984H20.1457V15.5979ZM34.9464 32.4427L32.4293 33.2723L34.4876 30.221H34.9464V32.4427ZM27.0527 28.2712V25.8721C28.9795 26.4713 31.0462 26.4713 32.973 25.8721V28.2712H27.0527ZM22.1192 5.84922C22.1192 3.69561 23.8862 1.94974 26.066 1.94974H33.9597C36.1394 1.94974 37.9065 3.69561 37.9065 5.84922V9.7487H22.1192V5.84922ZM22.1192 16.5728V11.6984H37.9065V16.5728C37.9065 20.88 34.3724 24.3718 30.0128 24.3718C25.6533 24.3718 22.1192 20.88 22.1192 16.5728ZM25.0793 32.4427V30.221H25.5381L27.5964 33.2723L25.0793 32.4427ZM27.9092 30.221H32.1165L30.0128 33.3406L27.9092 30.221ZM43.8363 55.0691C42.4205 54.1359 41.3064 52.8198 40.6269 51.2782C40.47 50.9231 40.1153 50.6935 39.723 50.6933H20.3026C19.9104 50.6935 19.5557 50.9231 19.3988 51.2782C17.437 55.7193 12.2027 57.7483 7.70764 55.81C3.21256 53.8717 1.15897 48.7003 3.12079 44.2591C4.53401 41.0598 7.73231 38.9926 11.2653 38.9948C14.7943 38.997 17.9872 41.0635 19.3988 44.2591C19.5557 44.6142 19.9104 44.8438 20.3026 44.844H39.723C40.1151 44.8438 40.47 44.6142 40.6269 44.2591C42.5827 39.8219 47.8089 37.7911 52.3 39.7234C53.8604 40.3947 55.1924 41.4955 56.137 42.8943H48.7603C48.2154 42.8943 47.7736 43.3308 47.7736 43.8692V51.6681C47.7736 52.2065 48.2154 52.643 48.7603 52.643H56.137C53.4183 56.669 47.9111 57.7551 43.8363 55.0691Z" fill="#A8A8A8"/>
<path d="M16.7071 44.0086L11.7736 41.084C11.4609 40.8984 11.0699 40.8984 10.7573 41.084L5.82373 44.0086C5.5308 44.1825 5.34974 44.4937 5.34517 44.8314L5.26328 51.0053C5.25822 51.3723 5.46222 51.7111 5.79117 51.8817L10.8076 54.4816C11.1125 54.6393 11.4786 54.6286 11.7736 54.4534L16.7071 51.5288C17.004 51.3526 17.1856 51.0355 17.1857 50.6933V44.8441C17.1857 44.5019 17.004 44.1848 16.7071 44.0086ZM15.2123 50.1415L11.2329 52.5007L7.2436 50.433L7.31169 45.4007L11.2654 43.0562L15.2123 45.3959V50.1415Z" fill="#A8A8A8"/>
<path d="M39.8802 46.7938H20.146V48.7436H39.8802V46.7938Z" fill="#A8A8A8"/>
<path d="M30.9998 13.6482H29.0264V18.5225H30.9998V13.6482Z" fill="#A8A8A8"/>
<path d="M38.8934 38.9949H32.9731V40.9446H38.8934V38.9949Z" fill="#A8A8A8"/>
</g>
<defs>
<clipPath id="clip0">
<rect width="59.204" height="58.4935" fill="white"/>
</clipPath>
</defs>
</svg>
