<svg width="44" height="36" viewBox="0 0 44 36" fill="none" xmlns="http://www.w3.org/2000/svg">
<g clip-path="url(#clip0)">
<path d="M35.2916 6.66663H8.3749C6.42275 6.66663 4.83325 8.25613 4.83325 10.2083V25.7917C4.83325 27.7438 6.42275 29.3333 8.3749 29.3333H35.2915C37.2437 29.3333 38.8332 27.7438 38.8332 25.7917V10.2083C38.8332 8.25613 37.2437 6.66663 35.2916 6.66663ZM37.4166 25.7916C37.4166 26.9632 36.4632 27.9166 35.2916 27.9166H8.3749C7.20329 27.9166 6.2499 26.9632 6.2499 25.7916V10.2083C6.2499 9.03673 7.20329 8.08334 8.3749 8.08334H35.2915C36.4631 8.08334 37.4165 9.03673 37.4165 10.2083V25.7916H37.4166Z" fill="#595959"/>
<path d="M15.4583 19.8334H9.79161C9.40061 19.8334 9.08325 20.1507 9.08325 20.5417C9.08325 20.9327 9.40061 21.25 9.79161 21.25H15.4583C15.8493 21.25 16.1666 20.9327 16.1666 20.5417C16.1666 20.1507 15.8493 19.8334 15.4583 19.8334Z" fill="#595959"/>
<path d="M19.7083 11H9.79161C9.40061 11 9.08325 11.3174 9.08325 11.7084C9.08325 12.0994 9.40061 12.4167 9.79161 12.4167H19.7083C20.0993 12.4167 20.4166 12.0994 20.4166 11.7084C20.4166 11.3174 20.0993 11 19.7083 11Z" fill="#595959"/>
<path d="M18.3802 14H9.70307C9.36094 14 9.08325 14.3174 9.08325 14.7084C9.08325 15.0994 9.36094 15.4167 9.70307 15.4167H18.3802C18.7223 15.4167 19 15.0994 19 14.7084C19 14.3174 18.7223 14 18.3802 14Z" fill="#595959"/>
<path d="M23.0677 17H10.0156C9.50095 17 9.08325 17.3174 9.08325 17.7084C9.08325 18.0994 9.50095 18.4167 10.0156 18.4167H23.0677C23.5823 18.4167 24 18.0994 24 17.7084C24 17.3174 23.5823 17 23.0677 17Z" fill="#595959"/>
</g>
<line x1="32.3333" y1="1.33334" x2="43.6666" y2="1.33334" stroke="#595959"/>
<line x1="43.1665" y1="7.5" x2="43.1665" y2="1.83333" stroke="#595959"/>
<line y1="-0.5" x2="11.3333" y2="-0.5" transform="matrix(-1 0 0 1 11.3333 1.83334)" stroke="#595959"/>
<line y1="-0.5" x2="5.66667" y2="-0.5" transform="matrix(4.37114e-08 -1 -1 -4.37114e-08 0 7.5)" stroke="#595959"/>
<line y1="-0.5" x2="11.3333" y2="-0.5" transform="matrix(1 0 0 -1 32.3333 34.1667)" stroke="#595959"/>
<line y1="-0.5" x2="5.66667" y2="-0.5" transform="matrix(-4.37114e-08 1 1 4.37114e-08 43.6665 28.5)" stroke="#595959"/>
<line x1="11.333" y1="34.6667" x2="-0.000325203" y2="34.6667" stroke="#595959"/>
<line x1="0.499756" y1="28.5" x2="0.499756" y2="34.1667" stroke="#595959"/>
<defs>
<clipPath id="clip0">
<rect width="34" height="34" fill="white" transform="translate(4.83325 1)"/>
</clipPath>
</defs>
</svg>
