<svg width="60" height="60" viewBox="0 0 60 60" fill="none" xmlns="http://www.w3.org/2000/svg">
<g clip-path="url(#clip0)">
<path d="M58.3008 50.7119L44.0671 36.5615L43.8541 35.5004C43.6107 34.2878 42.72 33.3116 41.5296 32.953C40.3389 32.5945 39.0533 32.9148 38.1737 33.7892L36.8657 35.0896L32.8869 31.1342L45.2331 18.8603C46.2853 17.8141 47.6151 17.0137 49.0785 16.5453C50.3628 16.1344 51.5484 15.4132 52.5074 14.4598C54.164 12.813 55.0559 10.6233 55.019 8.29427C54.9821 5.96522 54.0192 3.8027 52.3075 2.20507C52.0005 1.91864 51.5672 1.80925 51.1596 1.9158C50.7524 2.02235 50.4291 2.32959 50.3036 2.7292L48.9146 7.15527C48.7531 7.67007 48.3996 8.09143 47.9192 8.34194C47.4389 8.59232 46.8894 8.64188 46.3713 8.48118C45.8535 8.3206 45.4296 7.96921 45.1778 7.49168C44.9259 7.01414 44.8761 6.4676 45.0376 5.95294L46.4106 1.5775C46.5368 1.17533 46.4445 0.736827 46.1666 0.418653C45.8887 0.100479 45.465 -0.0519903 45.0468 0.0159391C43.4569 0.273476 41.9829 0.963438 40.7839 2.01128C38.675 3.85469 37.6014 6.60846 37.9123 9.37736C38.2223 12.1377 37.2318 14.8826 35.1944 16.9079L26.8857 25.1682L9.74479 8.12613L10.0024 4.56126C10.036 4.09494 9.79777 3.6509 9.38943 3.41902L4.20795 0.475374C3.7291 0.203386 3.12677 0.283605 2.73677 0.671194L0.516271 2.87883C0.1264 3.26642 0.0458453 3.86536 0.319298 4.34127L3.28014 9.49242C3.49885 9.87285 3.90502 10.1049 4.34135 10.1049C4.37042 10.1049 4.39976 10.1038 4.4291 10.1018L8.01632 9.8457L25.1568 26.8872L12.8112 39.1605C11.7588 40.2067 10.429 41.0072 8.9656 41.4755C7.68147 41.8865 6.49569 42.6076 5.53677 43.5609C3.88016 45.2078 2.98821 47.3975 3.02516 49.7266C3.06211 52.0556 4.02497 54.2181 5.7366 55.8156C6.0436 56.1022 6.47708 56.2116 6.88447 56.1049C7.29173 55.9983 7.61504 55.6911 7.74056 55.2915L9.12956 50.8654C9.46305 49.8029 10.6037 49.2074 11.6728 49.5397C12.1907 49.7002 12.6145 50.0516 12.8663 50.5292C13.1182 51.0067 13.168 51.5532 13.0065 52.0679L11.6336 56.4433C11.5074 56.8455 11.5996 57.284 11.8775 57.6022C12.1117 57.8704 12.4497 58.0208 12.8006 58.0208C12.8658 58.0208 12.9317 58.0156 12.9973 58.005C14.5872 57.7475 16.0612 57.0574 17.2601 56.0097C19.3692 54.1663 20.4427 51.4125 20.1317 48.6436C19.8217 45.8832 20.8122 43.1384 22.8496 41.113L31.1579 32.8534L35.1366 36.8089L33.8292 38.1088C32.9496 38.9832 32.6272 40.2616 32.988 41.445C33.3487 42.6284 34.3306 43.5139 35.5503 43.7558L36.6176 43.9676L50.8513 58.1179C51.8783 59.1389 53.2268 59.6494 54.5758 59.6492C55.9245 59.6491 57.2737 59.1388 58.3004 58.1179C60.3545 56.0759 60.3545 52.7537 58.3008 50.7119ZM7.34159 7.45656L5.02138 7.62227L2.90562 3.94125L3.80558 3.04656L7.50827 5.15007L7.34159 7.45656ZM21.1207 39.3937C18.5549 41.9445 17.3087 45.4141 17.7017 48.9129C17.9241 50.8937 17.1555 52.8639 15.6457 54.1836C15.3493 54.4426 15.0291 54.671 14.6898 54.8664L15.3409 52.7915C15.6969 51.6569 15.5871 50.4524 15.032 49.3997C14.4768 48.3472 13.5424 47.5725 12.4011 47.2187C11.9611 47.0823 11.5109 47.0147 11.0627 47.0147C10.3485 47.0147 9.63992 47.1866 8.98937 47.5258C7.93061 48.0778 7.15141 49.0066 6.79536 50.1413L6.11248 52.3177C5.70644 51.5112 5.48502 50.6182 5.47021 49.6881C5.44386 48.0227 6.0815 46.4572 7.26592 45.2797C7.96158 44.5881 8.7856 44.0867 9.71504 43.7893C11.5462 43.2033 13.2149 42.1971 14.5403 40.8793L36.9237 18.627C39.4895 16.0762 40.7357 12.6066 40.3427 9.1078C40.1203 7.12718 40.8889 5.15683 42.3987 3.837C42.6951 3.57797 43.0153 3.34961 43.3546 3.15419L42.7034 5.22908C42.3474 6.36362 42.4571 7.56811 43.0123 8.62082C43.5675 9.67338 44.5018 10.448 45.6432 10.8018C46.7845 11.1557 47.9961 11.0467 49.0549 10.4947C50.1137 9.9428 50.8929 9.01394 51.2489 7.87926L51.9319 5.70283C52.338 6.50933 52.5595 7.40241 52.5742 8.33262C52.6005 9.9979 51.9629 11.5635 50.7785 12.741C50.0828 13.4326 49.2588 13.9339 48.3294 14.2314C46.498 14.8174 44.8295 15.8238 43.5041 17.1414L21.1207 39.3937ZM36.0289 41.3715C35.5408 41.2747 35.3763 40.8974 35.3282 40.7396C35.2801 40.5819 35.2063 40.1772 35.5583 39.8273L39.9027 35.5083C40.118 35.2942 40.354 35.2386 40.541 35.2386C40.6599 35.2386 40.7589 35.261 40.8206 35.2796C40.9793 35.3274 41.359 35.491 41.4564 35.9763L41.6139 36.7611L36.8185 41.5283L36.0289 41.3715ZM56.5718 56.3986C55.4713 57.4925 53.6809 57.4924 52.5806 56.3986L38.9494 42.8472L42.9407 38.8793L56.5719 52.4308C57.105 52.9607 57.3984 53.6652 57.3984 54.4146C57.3984 55.164 57.1048 55.8687 56.5718 56.3986Z" fill="#C0C0C0"/>
</g>
<defs>
<clipPath id="clip0">
<rect width="60" height="59.6488" fill="white"/>
</clipPath>
</defs>
</svg>
