<svg width="18" height="18" viewBox="0 0 18 18" fill="none" xmlns="http://www.w3.org/2000/svg">
<path d="M17.7293 7.83933L16.6867 7.63867C16.0727 7.52067 15.5697 7.103 15.3417 6.52067C15.113 5.939 15.1973 5.29067 15.5673 4.78633L16.222 3.89333C16.3193 3.761 16.305 3.577 16.1887 3.46067L14.7747 2.04667C14.6617 1.93367 14.4843 1.91667 14.352 2.00633L13.4727 2.60167C12.9553 2.95233 12.3043 3.012 11.7313 2.76233C11.1583 2.51233 10.7593 1.994 10.6643 1.37633L10.496 0.282333C10.471 0.12 10.3313 0 10.1667 0H8.16667C8.007 0 7.86933 0.113333 7.83933 0.270667L7.58033 1.61733C7.46467 2.21767 7.05867 2.716 6.49367 2.94967C5.929 3.18433 5.28933 3.11867 4.78333 2.776L3.648 2.00667C3.51567 1.91733 3.33833 1.934 3.22533 2.047L1.811 3.461C1.69467 3.57733 1.68067 3.761 1.77767 3.894L2.43233 4.787C2.802 5.291 2.88633 5.93933 2.658 6.52133C2.42933 7.103 1.92667 7.521 1.31267 7.639L0.27 7.83967C0.113333 7.86933 0 8.007 0 8.16667V10.1667C0 10.331 0.12 10.471 0.282667 10.496L1.377 10.6643C1.99467 10.7593 2.513 11.158 2.76267 11.731C3.01267 12.3043 2.95267 12.9553 2.602 13.473L2.00667 14.3523C1.917 14.4843 1.934 14.662 2.047 14.775L3.461 16.189C3.57733 16.305 3.76067 16.32 3.89367 16.2223L4.78667 15.5677C5.29067 15.198 5.939 15.1127 6.52067 15.342C7.10267 15.5703 7.52067 16.073 7.63867 16.687L7.83933 17.7297C7.86933 17.8867 8.007 18 8.16667 18H10.1667C10.3313 18 10.4713 17.88 10.496 17.7173L10.6143 16.9477C10.7117 16.3157 11.122 15.7927 11.7123 15.5483C12.3027 15.305 12.9627 15.3833 13.478 15.7617L14.106 16.222C14.239 16.3197 14.4227 16.3047 14.5387 16.1887L15.9527 14.7747C16.0657 14.6617 16.0827 14.4843 15.993 14.352L15.3977 13.4727C15.047 12.955 14.987 12.304 15.237 11.731C15.487 11.1577 16.005 10.759 16.623 10.664L17.717 10.4957C17.88 10.471 18 10.331 18 10.1667V8.16667C18 8.007 17.8867 7.86933 17.7293 7.83933ZM17.3333 9.88067L16.5217 10.0057C15.6767 10.1357 14.968 10.681 14.626 11.465C14.2843 12.2487 14.3663 13.139 14.846 13.847L15.287 14.4983L14.2697 15.5157L13.8723 15.2243C13.1673 14.7073 12.265 14.5993 11.457 14.933C10.6497 15.2677 10.088 15.9827 9.95533 16.8467L9.88067 17.3333H8.442L8.29333 16.5613C8.132 15.7213 7.56 15.0337 6.764 14.721C5.969 14.4087 5.08167 14.5247 4.39233 15.0297L3.73 15.5153L2.71267 14.498L3.154 13.8467C3.63333 13.139 3.71567 12.2483 3.37367 11.4647C3.03167 10.681 2.323 10.1357 1.478 10.0057L0.666667 9.88067V8.44233L1.439 8.294C2.27867 8.13267 2.96633 7.561 3.279 6.765C3.59133 5.969 3.476 5.08233 2.97033 4.39267L2.48467 3.73L3.502 2.71267L4.40967 3.32767C5.102 3.79667 5.97667 3.886 6.749 3.56533C7.52133 3.24533 8.077 2.564 8.235 1.74267L8.442 0.666667H9.88067L10.0057 1.47833C10.1357 2.32333 10.6813 3.032 11.465 3.374C12.2487 3.716 13.139 3.63333 13.847 3.15433L14.4983 2.71333L15.5157 3.73067L15.03 4.39267C14.5243 5.082 14.409 5.969 14.7217 6.765C15.034 7.561 15.7217 8.13267 16.5617 8.294L17.3333 8.442V9.88067Z" fill="white"/>
<path d="M9.16667 5.66666C7.23667 5.66666 5.66667 7.23666 5.66667 9.16666C5.66667 11.0967 7.23667 12.6667 9.16667 12.6667C11.0967 12.6667 12.6667 11.0967 12.6667 9.16666C12.6667 7.23666 11.0967 5.66666 9.16667 5.66666ZM9.16667 12C7.60434 12 6.33334 10.729 6.33334 9.16666C6.33334 7.60432 7.60434 6.33332 9.16667 6.33332C10.729 6.33332 12 7.60432 12 9.16666C12 10.729 10.729 12 9.16667 12Z" fill="white"/>
<path d="M9.16666 7.33334C8.15566 7.33334 7.33333 8.15601 7.33333 9.16668C7.33333 10.1773 8.15566 11 9.16666 11C10.1777 11 11 10.1773 11 9.16668C11 8.15601 10.1777 7.33334 9.16666 7.33334ZM9.16666 10.3333C8.52333 10.3333 7.99999 9.81001 7.99999 9.16668C7.99999 8.52334 8.52333 8.00001 9.16666 8.00001C9.81 8.00001 10.3333 8.52334 10.3333 9.16668C10.3333 9.81001 9.81 10.3333 9.16666 10.3333Z" fill="white"/>
</svg>
