<svg width="59" height="59" viewBox="0 0 59 59" fill="none" xmlns="http://www.w3.org/2000/svg">
<g clip-path="url(#clip0)">
<path d="M58.1842 26.062L54.6354 25.0776C54.4082 23.9062 54.0967 22.7523 53.7035 21.6246L56.2715 19.0266C56.5541 18.7401 56.6309 18.312 56.4651 17.9469C55.6354 16.1193 54.618 14.3806 53.4287 12.7584C53.1922 12.4333 52.7775 12.2854 52.3852 12.3861L48.8257 13.2868C48.0344 12.3869 47.1802 11.543 46.2694 10.7612L47.181 7.24443C47.2813 6.85692 47.1319 6.44821 46.8042 6.21339C45.1623 5.03806 43.4027 4.03248 41.5527 3.21261C41.1834 3.04725 40.7493 3.12329 40.46 3.40393L37.8305 5.94103C36.6887 5.55267 35.5205 5.24497 34.3345 5.02039L33.3381 1.51415C33.2186 1.09349 32.8303 0.802857 32.388 0.802979H26.516C26.0737 0.802857 25.6854 1.09349 25.5659 1.51415L24.5696 5.02039C23.3839 5.24485 22.216 5.55255 21.0746 5.94103L18.4451 3.40393C18.1557 3.12341 17.7217 3.04737 17.3524 3.21261C15.5024 4.03224 13.7427 5.03745 12.1008 6.21241C11.7731 6.44723 11.6237 6.85595 11.724 7.24346L12.6356 10.7602C11.7247 11.542 10.8705 12.386 10.0791 13.2859L6.51969 12.3853C6.12735 12.2837 5.71231 12.4317 5.47612 12.7576C4.28651 14.3798 3.26872 16.1183 2.4389 17.9461C2.27313 18.3112 2.34997 18.7391 2.63254 19.0256L5.20046 21.6236C4.80737 22.7517 4.49607 23.9059 4.26863 25.0776L0.719805 26.062C0.29404 26.1801 -0.0001233 26.5637 3.8771e-08 27.0007V32.8014C-0.0001233 33.2384 0.29404 33.622 0.719805 33.7401L4.26863 34.7244C4.49582 35.8961 4.80725 37.0504 5.20046 38.1784L2.63254 40.7764C2.34997 41.0629 2.27313 41.491 2.4389 41.856C3.26848 43.6837 4.2859 45.4223 5.47513 47.0445C5.71243 47.3687 6.12648 47.5164 6.5187 47.4168L10.0781 46.5161C10.8695 47.416 11.7237 48.26 12.6346 49.0419L11.723 52.5586C11.6227 52.9461 11.7721 53.3548 12.0998 53.5896C13.7417 54.765 15.5013 55.7705 17.3513 56.5904C17.7208 56.7537 18.1537 56.6779 18.444 56.3991L21.0735 53.862C22.2153 54.2504 23.3835 54.5579 24.5695 54.7826L25.5658 58.2889C25.6853 58.7095 26.0737 59.0002 26.5159 59H32.387C32.8293 59.0002 33.2176 58.7095 33.3371 58.2889L34.3334 54.7835C35.5193 54.5583 36.6876 54.2504 37.8294 53.862L40.4589 56.3991C40.7489 56.6783 41.1822 56.7542 41.5516 56.5904C43.4014 55.7707 45.1612 54.7655 46.8031 53.5905C47.1308 53.3557 47.2802 52.947 47.1799 52.5594L46.2683 49.0427C47.1792 48.2609 48.0333 47.4169 48.8246 46.5171L52.3841 47.4177C52.7763 47.5174 53.1903 47.3697 53.4276 47.0455C54.6174 45.4233 55.635 43.6846 56.4649 41.8568C56.6306 41.4917 56.5538 41.0638 56.2712 40.7773L53.7033 38.1793C54.0964 37.0512 54.4077 35.897 54.6351 34.7253L58.1839 33.7409C58.6097 33.6228 58.9039 33.2392 58.9038 32.8022V27.0007C58.9041 26.5638 58.61 26.1801 58.1842 26.062ZM56.9305 32.0635L53.5068 33.0137C53.1387 33.1157 52.8634 33.4188 52.8005 33.7915C52.5537 35.2553 52.1658 36.6923 51.6422 38.0832C51.5081 38.4366 51.593 38.8349 51.86 39.1048L54.3836 41.6581C53.7598 42.9469 53.0349 44.1853 52.2156 45.3623L48.7158 44.4769C48.3456 44.3817 47.9532 44.5081 47.7109 44.8006C46.7538 45.9443 45.6891 46.996 44.5311 47.9412C44.2366 48.182 44.1089 48.5692 44.2035 48.9351L45.0997 52.3929C43.9086 53.2025 42.655 53.9183 41.3504 54.5339L38.766 52.0407C38.4932 51.7761 38.0897 51.6922 37.732 51.8255C36.3242 52.3428 34.8697 52.7263 33.3882 52.9707C33.0111 53.0332 32.7045 53.305 32.6009 53.6686L31.6392 57.0502H27.2637L26.302 53.6676C26.1988 53.3039 25.8919 53.0319 25.5147 52.9697C24.0332 52.7259 22.5786 52.3427 21.1708 51.8254C20.8133 51.6918 20.4096 51.7758 20.1369 52.0406L17.5526 54.5339C16.2483 53.9176 14.9947 53.2014 13.8033 52.3919L14.6995 48.9341C14.7942 48.5684 14.6666 48.1815 14.3719 47.9412C13.2143 46.9956 12.1499 45.9437 11.1931 44.7996C10.9492 44.5088 10.5576 44.3828 10.1872 44.4759L6.68743 45.3614C5.86833 44.1843 5.14372 42.9458 4.52037 41.6571L7.04388 39.1037C7.31078 38.8336 7.39564 38.4355 7.26169 38.0821C6.73787 36.6914 6.3501 35.2543 6.10342 33.7904C6.04052 33.4177 5.76522 33.1147 5.39706 33.0126L1.97342 32.0626V27.7394L5.39706 26.7892C5.76522 26.6872 6.04052 26.3841 6.10342 26.0114C6.35022 24.5476 6.73812 23.1106 7.26169 21.7197C7.39576 21.3663 7.3109 20.968 7.04388 20.6981L4.52024 18.1448C5.14409 16.856 5.86895 15.6176 6.68829 14.4406L10.188 15.326C10.5582 15.4197 10.9499 15.2936 11.193 15.0023C12.1501 13.8586 13.2148 12.8069 14.3728 11.8617C14.6673 11.6209 14.795 11.2337 14.7004 10.8678L13.8042 7.41004C14.9955 6.60078 16.2491 5.88485 17.5536 5.26898L20.1379 7.76221C20.4106 8.02689 20.8142 8.11085 21.1718 7.97741C22.5794 7.46037 24.0335 7.07712 25.5147 6.83304C25.8919 6.77089 26.1986 6.4989 26.302 6.13515L27.2637 2.75272H31.6402L32.6019 6.13527C32.7051 6.49902 33.012 6.77101 33.3892 6.83316C34.8707 7.077 36.3252 7.46024 37.733 7.97754C38.0906 8.11109 38.4943 8.02713 38.767 7.76233L41.3513 5.26898C42.6557 5.88534 43.9092 6.60151 45.1005 7.41101L44.2044 10.8688C44.1096 11.2345 44.2373 11.6214 44.5319 11.8617C45.6896 12.8073 46.754 13.8592 47.7108 15.0033C47.9537 15.2954 48.3462 15.4216 48.7167 15.327L52.2164 14.4415C53.0359 15.6183 53.7604 16.8569 54.3835 18.1458L51.86 20.6992C51.5931 20.9693 51.5082 21.3674 51.6422 21.7208C52.1655 23.1114 52.5534 24.5481 52.8005 26.0115C52.8634 26.3842 53.1387 26.6872 53.5068 26.7894L56.9305 27.7395V32.0635Z" fill="#A8A8A8"/>
<path d="M29.452 10.4041C18.553 10.4041 9.71777 19.1333 9.71777 29.9015C9.72986 40.6647 18.5581 49.387 29.452 49.3989C40.3509 49.3989 49.1862 40.6697 49.1862 29.9015C49.1862 19.1333 40.3509 10.4041 29.452 10.4041ZM42.6691 41.5816L40.6151 39.5522L39.2198 40.9308L41.2738 42.9602C38.2795 45.6164 34.4568 47.1827 30.4386 47.4V44.5247H28.4651V47.4C24.447 47.1828 20.6244 45.6164 17.63 42.9602L19.6839 40.9308L18.2886 39.5522L16.2346 41.5816C13.5461 38.6232 11.9607 34.8464 11.7409 30.8764H14.6511V28.9266H11.7411C11.9609 24.9567 13.5463 21.18 16.2349 18.2215L18.2888 20.2508L19.6842 18.8722L17.6302 16.8429C20.6245 14.1866 24.4471 12.6204 28.4654 12.4031V15.2783H30.4388V12.4032C34.4569 12.6204 38.2796 14.1867 41.274 16.843L39.22 18.8723L40.6154 20.2509L42.6693 18.2216C45.3579 21.18 46.9433 24.9567 47.1631 28.9268H44.2529V30.8765H47.1631C46.943 34.8463 45.3576 38.6231 42.6691 41.5816Z" fill="#A8A8A8"/>
<path d="M40.3828 30.2609C40.3143 29.9188 40.0471 29.6513 39.7052 29.5829L32.3144 28.1039C32.2786 28.0633 32.2429 28.0239 32.2041 27.985C30.8543 26.6343 28.666 26.6343 27.3162 27.985C25.9665 29.3358 25.9665 31.5258 27.3162 32.8766C28.6668 34.2254 30.8535 34.2254 32.2041 32.8766C32.2422 32.8383 32.2787 32.7984 32.3138 32.7583L39.7052 31.2787C40.1731 31.1848 40.4765 30.7292 40.3828 30.2609ZM31.6622 31.1245C31.4476 31.1721 31.2574 31.2954 31.1264 31.4721C31.0831 31.5363 31.0348 31.597 30.982 31.6536C30.3071 32.329 29.213 32.329 28.5381 31.6536C27.8632 30.9782 27.8632 29.8833 28.5381 29.2078C29.213 28.5324 30.3071 28.5324 30.982 29.2078C31.0385 29.2689 31.0901 29.3342 31.1365 29.4031C31.2648 29.5753 31.4519 29.6942 31.6622 29.7369L35.1288 30.4307L31.6622 31.1245Z" fill="#A8A8A8"/>
<path d="M20.2342 21.3442C19.9994 21.6968 19.9994 22.1561 20.2342 22.5086L25.3112 30.1292C25.3071 30.1949 25.304 30.2594 25.304 30.3261C25.304 32.6457 27.183 34.5261 29.5008 34.5261C31.8187 34.5261 33.6977 32.6457 33.6977 30.3261C33.6953 28.0075 31.8178 26.1285 29.5008 26.1261C29.4353 26.1261 29.3697 26.1291 29.3052 26.1333L21.6892 21.0525C21.2069 20.7311 20.5555 20.8616 20.2342 21.3442ZM28.4629 28.0961C28.688 28.2396 28.9571 28.2971 29.2211 28.258C29.3134 28.2402 29.4069 28.2295 29.5008 28.2263C30.6598 28.2263 31.5993 29.1664 31.5993 30.3263C31.5993 31.4861 30.6598 32.4263 29.5008 32.4263C28.3419 32.4263 27.4024 31.4861 27.4024 30.3263C27.4063 30.2253 27.418 30.1249 27.4373 30.0258C27.4749 29.7678 27.4162 29.5049 27.2723 29.2875L24.8911 25.7131L28.4629 28.0961Z" fill="#A8A8A8"/>
</g>
<defs>
<clipPath id="clip0">
<rect width="58.9039" height="58.1971" fill="white" transform="translate(0 0.802979)"/>
</clipPath>
</defs>
</svg>
