<svg width="18" height="18" viewBox="0 0 18 18" fill="none" xmlns="http://www.w3.org/2000/svg">
<path fill-rule="evenodd" clip-rule="evenodd" d="M18 16.0707C18 14.8553 16.1672 14.1801 15.2412 13.8135C14.6817 13.582 14.1029 13.3505 13.5434 13.0997C12.791 12.7524 12.0193 12.3473 11.4598 11.7106C11.2669 11.4791 11.1511 11.3248 11.1511 11.0161C11.1511 10.5723 11.2669 10.1286 11.3633 9.70418C11.5177 9.04823 11.8457 8.50804 12.1158 7.89068C12.4244 7.11897 12.5402 6.30868 12.6945 5.51768C12.7524 5.17042 12.8489 4.84244 12.8489 4.49518C12.8489 2.10289 11.5949 0 8.99035 0C6.38585 0 5.13183 2.10289 5.13183 4.49518C5.13183 4.84244 5.24759 5.17042 5.30547 5.51768C5.4791 6.30868 5.57556 7.11897 5.90354 7.89068C6.17363 8.50804 6.5209 9.04823 6.65595 9.70418C6.7717 10.1286 6.86817 10.5723 6.86817 11.0161C6.86817 11.3248 6.75241 11.4791 6.55949 11.7106C6 12.3473 5.2283 12.7524 4.47588 13.0997C3.9164 13.3698 3.33762 13.582 2.77814 13.8135C1.85209 14.1994 0 14.8553 0 16.0707V18H18V16.881V16.0707Z" fill="#445384"/>
</svg>
